<svg id="svg" viewBox="0 0 1024 768" height="768px" width="1024px" version="1.1">
  <linearGradient spreadMethod="pad" y2="30%" x2="-10%" y1="120%" x1="30%" id="3d_gradient-logo">
    <stop id="stop247726" stop-opacity="1" stop-color="#ffffff" offset="0%"></stop>
    <stop id="stop247728" stop-opacity="1" stop-color="#000000" offset="100%"></stop>
  </linearGradient>
  <linearGradient gradientTransform="rotate(-30)" spreadMethod="pad" y2="30%" x2="-10%" y1="120%" x1="30%" id="3d_gradient-logo-1">
    <stop id="stop247731" stop-opacity="1" stop-color="#ffffff" offset="0%"></stop>
    <stop id="stop247733" stop-opacity="1" stop-color="#cccccc" offset="50%"></stop>
    <stop id="stop247735" stop-opacity="1" stop-color="#000000" offset="100%"></stop>
  </linearGradient>
  <g id="logo-group">
    <g id="logo-center" transform="translate(1.1368683772161603e-13 0)">
      <g id="title" style="font-style:normal;font-weight:normal;font-size:72px;line-height:1;font-family:'Brandmark Sans 50 Spectrum';font-variant-ligatures:normal;text-align:center;text-anchor:middle" transform="translate(0 0)">
        <g id="hLetter" aria-label="H" transform="translate(0 292.19584) translate(570.5207078 50.26496) scale(1.38) translate(-554.82087 47.808)"> <path d="M116.90089,80.47498c-4.27344-3.70947-9.83643-5.96729-15.854-5.96729h.14355c-6.76855,0-12.38477-5.69531-12.38477-12.46387,0-3.3125-2.59229-5.97656-5.83252-5.97656-3.31201,0-5.97656,2.66406-5.97656,5.97656v54.29932c0,3.3125,2.66455,5.97656,5.97656,5.97656,3.24023,0,5.83252-2.66406,5.83252-5.97656v-17.78516c0-6.76855,5.54443-12.24121,12.24121-12.24121,6.76855,0,12.31299,5.47266,12.31299,12.24121v17.78516c0,3.3125,2.66406,5.97656,5.97607,5.97656,3.24072,0,5.90479-2.66406,5.90479-5.97656v-17.78516c0-7.19873-3.25635-13.66943-8.33984-18.08301Z" class="c1" stroke-width="0" transform="translate(483.92048 -122.27956)"  stroke-linejoin="miter" stroke-miterlimit="2" fill="#563a98" stroke="#563a98"></path> <path d="M101.04689,74.50769c-4.46484,0-8.64111,1.22412-12.24121,3.31201v-15.77588c0-3.3125-2.59229-5.97656-5.83252-5.97656-3.31201,0-5.97656,2.66406-5.97656,5.97656v36.50049h.00342c0-7.30029,3.25342-13.83496,8.38281-18.25195,4.26709,3.73682,9.81152,6.02441,15.80762,6.02441,4.46484,0,8.64111-1.22412,12.24121-3.31201,1.2334-.73242,2.39062-1.58496,3.46924-2.52979-4.27344-3.70947-9.83643-5.96729-15.854-5.96729Z" class="c2" stroke-width="0" transform="translate(483.92048 -122.27956)"  stroke-linejoin="miter" stroke-miterlimit="2" fill="#9963a5" stroke="#9963a5"></path> <path d="M88.80568,62.04383c0-3.3125-2.59229-5.97656-5.83252-5.97656-3.31201,0-5.97656,2.66406-5.97656,5.97656,0,7.22021,3.27588,13.77441,8.38623,18.24854,1.06543-.91748,2.20703-1.75049,3.42285-2.47266,3.6001-2.08789,7.77637-3.31201,12.24121-3.31201h.14355c-6.76855,0-12.38477-5.69531-12.38477-12.46387Z" class="c3" stroke-width="0" transform="translate(483.92048 -122.27956)"  stroke-linejoin="miter" stroke-miterlimit="2" fill="#dc8db3" stroke="#dc8db3"></path> </g>
        <g id="ILetter" aria-label="I" transform="translate(0 292.19584) translate(648.8691865999999 50.86112) scale(1.38) translate(-611.59513 47.376)"> <path d="M94.0608,116.34329v-35.42706c0-3.31226,2.66431-5.9765,5.97656-5.9765,3.24023,0,5.83252,2.66425,5.83252,5.9765v35.42706c0,3.31232-2.59229,5.97653-5.83252,5.97653-3.31226,0-5.97656-2.66422-5.97656-5.97653Z" class="c1" stroke-width="0" transform="translate(517.53433 -122.31573)" stroke-linejoin="miter" stroke-miterlimit="2" fill="#563a98" stroke="#563a98"></path> </g>
        <g id="DLetter" aria-label="D" transform="translate(0 292.19584) translate(674.8130071999998 24.828800000000015) scale(1.38) translate(-630.395 66.24)"> <path d="M99.92773,74.63367c4.49805,0,8.74316,1.26025,12.38525,3.44482v-16.02783c0-3.57812,3.0249-6.3999,6.62402-5.92432,3.01465.39893,5.18506,3.12109,5.18506,6.16211v36.26953c0,.0166-.00195.03271-.00195.04932,0,.02588.00195.05078.00195.07666,0,13.46484-11.0166,24.26611-24.19434,24.26611-13.24902,0-24.0498-10.80127-24.0498-24.26611,0-13.24902,10.80078-24.05029,24.0498-24.05029ZM99.92773,111.06873c1.18457,0,2.33057-.17627,3.42041-.48975.23242-.11572.46973-.2251.71924-.31201,4.45117-1.55518,7.77148-5.63818,8.19678-10.62256.01318-.1709.02002-.34326.02637-.51611.00732-.16602.01855-.33057.01953-.49854-.02979-6.74316-5.63184-12.18701-12.38232-12.18701-6.69629,0-12.16895,5.47266-12.16895,12.24121,0,6.9126,5.47266,12.38477,12.16895,12.38477Z" class="c1" stroke-width="0" transform="translate(550 -122.3139)" stroke-linejoin="miter" stroke-miterlimit="2" fill="#563a98" stroke="#563a98"></path> <path d="M112.31299,78.07849v-16.02783c0-3.57812,3.0249-6.3999,6.62402-5.92432,3.01465.39893,5.18506,3.12109,5.18506,6.16211v36.26953c0,.0166-.00195.03271-.00195.04932-.02832-8.69482-4.79932-16.32568-11.80713-20.52881Z" class="c3" stroke-width="0" transform="translate(550 -122.3139)" stroke-linejoin="miter" stroke-miterlimit="2" fill="#dc8db3" stroke="#dc8db3"></path> <path d="M107.60352,121.61219c-3.70312,1.229-7.53174-1.49561-7.53174-5.39746v-.5127c0-2.22607,1.31836-4.15137,3.27637-5.12305,4.84619-1.39404,8.51318-5.66846,8.91602-10.93457.01465-.17041.01855-.34375.02637-.51611.00537-.14893.02246-.29395.02246-.44434,0-.01855-.00293-.03564-.00293-.0542.00049-.02393.00293-.04785.00293-.07178v-20.47949c7.00781,4.20312,11.77881,11.83398,11.80713,20.52881-.02148,10.77197-6.95312,19.83105-16.5166,23.00488Z" class="c2" stroke-width="0" transform="translate(550 -122.3139)" stroke-linejoin="miter" stroke-miterlimit="2" fill="#9963a5" stroke="#9963a5"></path> </g>
      </g>
    </g>
  </g>
</svg>