<svg id="svg" viewBox="0 0 1024 768" height="768px" width="1024px" version="1.1">
  <linearGradient spreadMethod="pad" y2="30%" x2="-10%" y1="120%" x1="30%" id="3d_gradient-logo">
    <stop id="stop247726" stop-opacity="1" stop-color="#ffffff" offset="0%"></stop>
    <stop id="stop247728" stop-opacity="1" stop-color="#000000" offset="100%"></stop>
  </linearGradient>
  <linearGradient gradientTransform="rotate(-30)" spreadMethod="pad" y2="30%" x2="-10%" y1="120%" x1="30%" id="3d_gradient-logo-1">
    <stop id="stop247731" stop-opacity="1" stop-color="#ffffff" offset="0%"></stop>
    <stop id="stop247733" stop-opacity="1" stop-color="#cccccc" offset="50%"></stop>
    <stop id="stop247735" stop-opacity="1" stop-color="#000000" offset="100%"></stop>
  </linearGradient>
  <g id="logo-group">
    <g id="logo-center" transform="translate(1.1368683772161603e-13 0)">
      <g id="title" style="font-style:normal;font-weight:normal;font-size:72px;line-height:1;font-family:'Brandmark Sans 50 Spectrum';font-variant-ligatures:normal;text-align:center;text-anchor:middle" transform="translate(0 0)">
        <g id="hLetter" aria-label="H" transform="translate(0 292.19584) translate(282.6157928 24.828800000000015) scale(1.38) translate(-346.19412 66.24)"> <path d="M116.90089,80.47498c-4.27344-3.70947-9.83643-5.96729-15.854-5.96729h.14355c-6.76855,0-12.38477-5.69531-12.38477-12.46387,0-3.3125-2.59229-5.97656-5.83252-5.97656-3.31201,0-5.97656,2.66406-5.97656,5.97656v54.29932c0,3.3125,2.66455,5.97656,5.97656,5.97656,3.24023,0,5.83252-2.66406,5.83252-5.97656v-17.78516c0-6.76855,5.54443-12.24121,12.24121-12.24121,6.76855,0,12.31299,5.47266,12.31299,12.24121v17.78516c0,3.3125,2.66406,5.97656,5.97607,5.97656,3.24072,0,5.90479-2.66406,5.90479-5.97656v-17.78516c0-7.19873-3.25635-13.66943-8.33984-18.08301Z" class="c1" stroke-width="0" transform="translate(269.19753 -122.30726)" stroke-linejoin="miter" stroke-miterlimit="2" fill="#563a98" stroke="#563a98"></path> <path d="M101.04689,74.50769c-4.46484,0-8.64111,1.22412-12.24121,3.31201v-15.77588c0-3.3125-2.59229-5.97656-5.83252-5.97656-3.31201,0-5.97656,2.66406-5.97656,5.97656v36.50049h.00342c0-7.30029,3.25342-13.83496,8.38281-18.25195,4.26709,3.73682,9.81152,6.02441,15.80762,6.02441,4.46484,0,8.64111-1.22412,12.24121-3.31201,1.2334-.73242,2.39062-1.58496,3.46924-2.52979-4.27344-3.70947-9.83643-5.96729-15.854-5.96729Z" class="c2" stroke-width="0" transform="translate(269.19753 -122.30726)" stroke-linejoin="miter" stroke-miterlimit="2" fill="#9963a5" stroke="#9963a5"></path> <path d="M88.80568,62.04383c0-3.3125-2.59229-5.97656-5.83252-5.97656-3.31201,0-5.97656,2.66406-5.97656,5.97656,0,7.22021,3.27588,13.77441,8.38623,18.24854,1.06543-.91748,2.20703-1.75049,3.42285-2.47266,3.6001-2.08789,7.77637-3.31201,12.24121-3.31201h.14355c-6.76855,0-12.38477-5.69531-12.38477-12.46387Z" class="c3" stroke-width="0" transform="translate(269.19753 -122.30726)" stroke-linejoin="miter" stroke-miterlimit="2" fill="#dc8db3" stroke="#dc8db3"></path> </g>
        <g id="uLetter" aria-label="u" transform="translate(0 292.19584) translate(359.41331719999994 50.86112) scale(1.38) translate(-401.8445 47.376)"> <path d="M87.65382,80.91622v17.78552c0,6.76862,5.54443,12.24109,12.24121,12.24109,6.76855,0,12.31299-5.47247,12.31299-12.24109v-17.78552c0-3.31226,2.66406-5.9765,5.97656-5.9765,3.24023,0,5.9043,2.66425,5.9043,5.9765v17.78552c0,13.32117-11.0166,24.12213-24.19385,24.12213-11.16113,0-20.66602-7.77667-23.2583-18.14557-.50391-3.31232-.79199-8.56873-.79199-11.95306v-11.80902c0-3.31226,2.66455-5.9765,5.97656-5.9765,3.24023,0,5.83252,2.66425,5.83252,5.9765Z" class="c1" stroke-width="0" transform="translate(325.99976 -122.31572)" stroke-linejoin="miter" stroke-miterlimit="2" fill="#563a98" stroke="#563a98"></path> </g>
        <g id="eLetter" aria-label="e" transform="translate(0 292.19584) translate(435.3445327999999 50.26496) scale(1.38) translate(-456.86712 47.808)"> <path d="M100.07202,74.19666c-13.15771,0-24.1582,10.78516-24.1582,24.01416,0,3.30713,2.66064,5.96777,5.96777,5.96777h36.23682c3.30713,0,5.96777-2.66064,5.96777-5.96777,0-13.229-10.78467-24.01416-24.01416-24.01416ZM100.07202,85.98816c4.56934,0,8.56543,2.5542,10.63916,6.32715h-21.45801c2.12158-3.77295,6.2002-6.32715,10.81885-6.32715Z" class="c1" stroke-width="0" transform="translate(380.9533 -122.00466)" stroke-linejoin="miter" stroke-miterlimit="2" fill="#563a98" stroke="#563a98"></path> <path d="M113.64185,107.98572c-2.01465-1.21191-4.53809-1.08105-6.4624.26953-2.01758,1.41602-4.47314,2.25-7.10742,2.25049v-.00049c-2.63477,0-5.09033-.83398-7.1084-2.25049-1.92432-1.35059-4.44775-1.48145-6.4624-.26953-3.64404,2.19238-3.82129,7.39941-.35107,9.85742,3.95703,2.80273,8.77344,4.45361,13.9209,4.4541v.00049c5.14795,0,9.96436-1.65137,13.92188-4.4541,3.47021-2.45801,3.29297-7.66504-.35107-9.85742Z" class="c1" stroke-width="0" transform="translate(380.9533 -122.00466)" stroke-linejoin="miter" stroke-miterlimit="2" fill="#563a98" stroke="#563a98"></path> <path d="M112.2229,98.21082c0-2.13965-.55078-4.14795-1.51172-5.89551h-21.45801c-.98291,1.74756-1.54785,3.75586-1.54785,5.89551,0,3.30713-2.66016,5.96777-5.82373,5.96777h36.23682c-3.23535,0-5.89551-2.66064-5.89551-5.96777Z" class="c3" stroke-width="0" transform="translate(380.9533 -122.00466)" stroke-linejoin="miter" stroke-miterlimit="2" fill="#dc8db3" stroke="#dc8db3"></path> <path d="M118.11841,92.31531h-7.40723c.96094,1.74756,1.51172,3.75586,1.51172,5.89551,0,3.30713,2.66016,5.96777,5.89551,5.96777,3.30713,0,5.96777-2.66064,5.96777-5.96777,0-3.23535-2.66064-5.89551-5.96777-5.89551Z" class="c2" stroke-width="0" transform="translate(380.9533 -122.00466)" stroke-linejoin="miter" stroke-miterlimit="2" fill="#9963a5" stroke="#9963a5"></path> <path d="M87.70532,98.21082c0-2.13965.56494-4.14795,1.54785-5.89551h-7.37158c-3.30713,0-5.96777,2.66016-5.96777,5.89551,0,3.30713,2.66064,5.96777,5.96777,5.96777,3.16357,0,5.82373-2.66064,5.82373-5.96777Z" class="c2" stroke-width="0" transform="translate(380.9533 -122.00466)" stroke-linejoin="miter" stroke-miterlimit="2" fill="#9963a5" stroke="#9963a5"></path> <path d="M113.64185,107.98572c-2.01465-1.21191-4.53809-1.08105-6.4624.26953-2.01758,1.41602-4.47314,2.25-7.10742,2.25049v-.00049c-2.63477,0-5.09033-.83398-7.1084-2.25049-1.92432-1.35059-4.44775-1.48145-6.4624-.26953-3.64404,2.19238-3.82129,7.39941-.35107,9.85742,3.95703,2.80273,8.77344,4.45361,13.9209,4.4541v.00049c5.14795,0,9.96436-1.65137,13.92188-4.4541,3.47021-2.45801,3.29297-7.66504-.35107-9.85742Z" class="c3" stroke-width="0" transform="translate(380.9533 -122.00466)" stroke-linejoin="miter" stroke-miterlimit="2" fill="#dc8db3" stroke="#dc8db3"></path> </g>
        <g id="lLetter1" aria-label="l" transform="translate(0 292.19584) translate(512.1824221999999 24.828800000000015) scale(1.38) translate(-512.54675 66.24)"> <path d="M94.06105,116.34329v-54.29266c0-3.31232,2.66431-5.97656,5.97656-5.97656,3.24023,0,5.83252,2.66425,5.83252,5.97656v54.29266c.07202,3.31232-2.59229,5.9765-5.83252,5.9765-3.31226,0-5.97656-2.66418-5.97656-5.9765Z" class="c1" stroke-width="0" transform="translate(418.4857 -122.31407)" stroke-linejoin="miter" stroke-miterlimit="2" fill="#563a98" stroke="#563a98"></path> </g>
        <g id="lLetter2" aria-label="l" transform="translate(0 292.19584) translate(542.6502277999999 24.828800000000015) scale(1.38) translate(-534.62487 66.24)"> <path d="M94.06105,116.34329v-54.29266c0-3.31232,2.66431-5.97656,5.97656-5.97656,3.24023,0,5.83252,2.66425,5.83252,5.97656v54.29266c.07202,3.31232-2.59229,5.9765-5.83252,5.9765-3.31226,0-5.97656-2.66418-5.97656-5.9765Z" class="c1" stroke-width="0" transform="translate(440.56382 -122.31407)" stroke-linejoin="miter" stroke-miterlimit="2" fill="#563a98" stroke="#563a98"></path> </g>
        <g id="aLetter" aria-label="a" transform="translate(0 292.19584) translate(570.5207078 50.26496) scale(1.38) translate(-554.82087 47.808)"> <path d="M128.55714,113.95838l-11.70947-25.56006c-.02832-.06104-.06104-.11963-.09033-.18018-.06152-.12793-.12744-.25391-.19092-.38037-.12109-.23926-.24219-.47803-.37061-.71338-.03857-.07031-.08008-.13965-.11914-.20947-2.25244-4.02539-5.62354-7.33838-9.67041-9.53125-.00244-.00098-.00439-.00244-.00635-.00342-.31689-.17139-.63867-.33496-.96338-.49268-.03809-.01855-.07617-.0376-.11426-.05615-.29541-.1416-.59473-.27539-.896-.40527-.07178-.03076-.14355-.0625-.21582-.09277-.2749-.11475-.55322-.22363-.83301-.32861-.10303-.03857-.20557-.07764-.30908-.11475-.11523-.0415-.22803-.08789-.34424-.12793-.05615-.01904-.11182-.02832-.16797-.0459-2.39648-.80273-4.94922-1.24463-7.59277-1.24463-13.26318,0-24.06299,10.80029-24.06299,24.06348,0,13.45264,10.7998,24.25293,24.06299,24.25293,8.15332,0,15.46826-4.14307,19.85986-10.48975l3.00635,6.57129c.96045,2.09863,3.05615,3.44482,5.36426,3.44482,4.29785,0,7.15332-4.44873,5.36328-8.35596ZM94.96339,110.94568c-6.72607,0-12.22119-5.49463-12.22119-12.41064,0-6.72656,5.49512-12.22119,12.22119-12.22119,1.60254,0,3.13672.31982,4.55029.88623.10449.0415.20947.08154.31299.12598.31445.13623.62305.28271.92383.44336.0249.01318.05029.02588.0752.03955,3.82275,2.0791,6.45361,6.1123,6.45361,10.72607,0,6.91602-5.58936,12.41064-12.31592,12.41064Z" class="c1" stroke-width="0" transform="translate(483.92048 -122.27956)" stroke-linejoin="miter" stroke-miterlimit="2" fill="#563a98" stroke="#563a98"></path> <path d="M128.55714,113.95838l-11.70947-25.56006c-.02832-.06104-.06104-.11963-.09033-.18018,1.51123,3.12891,2.36426,6.62695,2.36426,10.31689,0,5.12305-1.59717,9.85889-4.29834,13.76318l3.00635,6.57129c.96045,2.09863,3.05615,3.44482,5.36426,3.44482,4.29785,0,7.15332-4.44873,5.36328-8.35596Z" class="c3" stroke-width="0" transform="translate(483.92048 -122.27956)" stroke-linejoin="miter" stroke-miterlimit="2" fill="#dc8db3" stroke="#dc8db3"></path> <path d="M116.75734,88.21814c-.06152-.12793-.12744-.25342-.19092-.38037-.12109-.23926-.24219-.47852-.37061-.71338-.03857-.07031-.08008-.13916-.11914-.20947-2.25293-4.01611-5.62256-7.33496-9.67041-9.53125-.00244-.00098-.00439-.00244-.00635-.00342-.31689-.17188-.63867-.33496-.96338-.49268-.03809-.01855-.07617-.0376-.11426-.05615-.29541-.1416-.59473-.27539-.896-.40527-.07178-.03076-.14355-.0625-.21582-.09277-.2749-.11475-.55322-.22363-.83301-.32861-.10303-.03857-.20557-.07764-.30908-.11475-.16943-.06104-.34131-.1167-.51221-.17383-3.75635-1.16309-7.59277,1.70752-7.59277,5.67432,0,2.54395,1.63721,4.77246,4.0415,5.60449.17334.06006.33838.1377.50879.20508.10449.04199.20996.08154.31299.12598.31494.13477.62158.28369.92383.44336.0249.01318.05029.02588.0752.03955,2.2998,1.23438,4.19092,3.15674,5.31689,5.51562l8.68066,18.97363c2.70117-3.9043,4.29834-8.64014,4.29834-13.76318,0-3.68994-.85303-7.18799-2.36426-10.31689Z" class="c2" stroke-width="0" transform="translate(483.92048 -122.27956)" stroke-linejoin="miter" stroke-miterlimit="2" fill="#9963a5" stroke="#9963a5"></path> </g>
        <g id="ILetter" aria-label="I" transform="translate(0 292.19584) translate(648.8691865999999 50.86112) scale(1.38) translate(-611.59513 47.376)"> <path d="M94.0608,116.34329v-35.42706c0-3.31226,2.66431-5.9765,5.97656-5.9765,3.24023,0,5.83252,2.66425,5.83252,5.9765v35.42706c0,3.31232-2.59229,5.97653-5.83252,5.97653-3.31226,0-5.97656-2.66422-5.97656-5.97653Z" class="c1" stroke-width="0" transform="translate(517.53433 -122.31573)" stroke-linejoin="miter" stroke-miterlimit="2" fill="#563a98" stroke="#563a98"></path> </g>
        <g id="DLetter" aria-label="D" transform="translate(0 292.19584) translate(674.8130071999998 24.828800000000015) scale(1.38) translate(-630.395 66.24)"> <path d="M99.92773,74.63367c4.49805,0,8.74316,1.26025,12.38525,3.44482v-16.02783c0-3.57812,3.0249-6.3999,6.62402-5.92432,3.01465.39893,5.18506,3.12109,5.18506,6.16211v36.26953c0,.0166-.00195.03271-.00195.04932,0,.02588.00195.05078.00195.07666,0,13.46484-11.0166,24.26611-24.19434,24.26611-13.24902,0-24.0498-10.80127-24.0498-24.26611,0-13.24902,10.80078-24.05029,24.0498-24.05029ZM99.92773,111.06873c1.18457,0,2.33057-.17627,3.42041-.48975.23242-.11572.46973-.2251.71924-.31201,4.45117-1.55518,7.77148-5.63818,8.19678-10.62256.01318-.1709.02002-.34326.02637-.51611.00732-.16602.01855-.33057.01953-.49854-.02979-6.74316-5.63184-12.18701-12.38232-12.18701-6.69629,0-12.16895,5.47266-12.16895,12.24121,0,6.9126,5.47266,12.38477,12.16895,12.38477Z" class="c1" stroke-width="0" transform="translate(554.51708 -122.3139)" stroke-linejoin="miter" stroke-miterlimit="2" fill="#563a98" stroke="#563a98"></path> <path d="M112.31299,78.07849v-16.02783c0-3.57812,3.0249-6.3999,6.62402-5.92432,3.01465.39893,5.18506,3.12109,5.18506,6.16211v36.26953c0,.0166-.00195.03271-.00195.04932-.02832-8.69482-4.79932-16.32568-11.80713-20.52881Z" class="c3" stroke-width="0" transform="translate(554.51708 -122.3139)" stroke-linejoin="miter" stroke-miterlimit="2" fill="#dc8db3" stroke="#dc8db3"></path> <path d="M107.60352,121.61219c-3.70312,1.229-7.53174-1.49561-7.53174-5.39746v-.5127c0-2.22607,1.31836-4.15137,3.27637-5.12305,4.84619-1.39404,8.51318-5.66846,8.91602-10.93457.01465-.17041.01855-.34375.02637-.51611.00537-.14893.02246-.29395.02246-.44434,0-.01855-.00293-.03564-.00293-.0542.00049-.02393.00293-.04785.00293-.07178v-20.47949c7.00781,4.20312,11.77881,11.83398,11.80713,20.52881-.02148,10.77197-6.95312,19.83105-16.5166,23.00488Z" class="c2" stroke-width="0" transform="translate(554.51708 -122.3139)" stroke-linejoin="miter" stroke-miterlimit="2" fill="#9963a5" stroke="#9963a5"></path> </g>
      </g>
    </g>
  </g>
</svg>